<svg width="347" height="366" viewBox="0 0 347 366" fill="none" xmlns="http://www.w3.org/2000/svg">
<path d="M28.8 90C27.5733 90 26.5067 89.5467 25.6 88.64C24.7467 87.7333 24.32 86.6667 24.32 85.44V36.16C24.32 34.9333 24.7467 33.8667 25.6 32.96C26.5067 32.0533 27.5733 31.6 28.8 31.6H30.56C33.6 31.6 35.84 32.9333 37.28 35.6L57.04 71.28C57.04 71.3333 57.0667 71.36 57.12 71.36C57.1733 71.36 57.2 71.3333 57.2 71.28V36.16C57.2 34.9333 57.6533 33.8667 58.56 32.96C59.4667 32.0533 60.5333 31.6 61.76 31.6H63.52C64.7467 31.6 65.7867 32.0533 66.64 32.96C67.5467 33.8667 68 34.9333 68 36.16V85.44C68 86.6667 67.5467 87.7333 66.64 88.64C65.7867 89.5467 64.7467 90 63.52 90H61.76C58.72 90 56.48 88.6667 55.04 86L35.28 50.32C35.28 50.2667 35.2533 50.24 35.2 50.24C35.1467 50.24 35.12 50.2667 35.12 50.32V85.44C35.12 86.6667 34.6667 87.7333 33.76 88.64C32.8533 89.5467 31.7867 90 30.56 90H28.8ZM104.328 58.72C102.781 56.48 100.435 55.36 97.2881 55.36C94.1415 55.36 91.7681 56.48 90.1681 58.72C88.6215 60.9067 87.8481 64.4 87.8481 69.2C87.8481 74 88.6215 77.52 90.1681 79.76C91.7681 81.9467 94.1415 83.04 97.2881 83.04C100.435 83.04 102.781 81.9467 104.328 79.76C105.928 77.52 106.728 74 106.728 69.2C106.728 64.4 105.928 60.9067 104.328 58.72ZM112.168 85.2C108.648 88.9333 103.688 90.8 97.2881 90.8C90.8881 90.8 85.9015 88.9333 82.3281 85.2C78.8081 81.4133 77.0481 76.08 77.0481 69.2C77.0481 62.32 78.8081 57.0133 82.3281 53.28C85.9015 49.4933 90.8881 47.6 97.2881 47.6C103.688 47.6 108.648 49.4933 112.168 53.28C115.741 57.0133 117.528 62.32 117.528 69.2C117.528 76.08 115.741 81.4133 112.168 85.2ZM126.844 57.76C125.778 57.76 124.871 57.3867 124.124 56.64C123.378 55.84 123.004 54.9067 123.004 53.84C123.004 52.7733 123.378 51.8667 124.124 51.12C124.871 50.3733 125.778 50 126.844 50H130.684C131.164 50 131.404 49.76 131.404 49.28V39.36C131.404 38.1333 131.831 37.0667 132.684 36.16C133.591 35.2533 134.658 34.8 135.884 34.8H137.484C138.711 34.8 139.778 35.2533 140.684 36.16C141.591 37.0667 142.044 38.1333 142.044 39.36V49.28C142.044 49.76 142.284 50 142.764 50H151.884C152.951 50 153.858 50.3733 154.604 51.12C155.404 51.8667 155.804 52.7733 155.804 53.84C155.804 54.9067 155.404 55.84 154.604 56.64C153.858 57.3867 152.951 57.76 151.884 57.76H142.764C142.284 57.76 142.044 57.9733 142.044 58.4V74.56C142.044 78.0267 142.418 80.2667 143.164 81.28C143.911 82.2933 145.458 82.8 147.804 82.8C149.084 82.8 150.044 82.7467 150.684 82.64C151.751 82.5333 152.684 82.7733 153.484 83.36C154.284 83.9467 154.684 84.7467 154.684 85.76C154.684 86.9333 154.284 88 153.484 88.96C152.738 89.8667 151.804 90.3733 150.684 90.48C148.338 90.6933 146.578 90.8 145.404 90.8C140.231 90.8 136.604 89.7067 134.524 87.52C132.444 85.28 131.404 81.3067 131.404 75.6V58.4C131.404 57.9733 131.164 57.76 130.684 57.76H126.844ZM173.839 90C172.613 90 171.546 89.5467 170.639 88.64C169.733 87.7333 169.279 86.6667 169.279 85.44V52.96C169.279 51.7333 169.733 50.6667 170.639 49.76C171.546 48.8533 172.613 48.4 173.839 48.4H175.919C177.146 48.4 178.213 48.8533 179.119 49.76C180.026 50.6667 180.479 51.7333 180.479 52.96V85.44C180.479 86.6667 180.026 87.7333 179.119 88.64C178.213 89.5467 177.146 90 175.919 90H173.839ZM173.839 39.6C172.613 39.6 171.546 39.1467 170.639 38.24C169.733 37.3333 169.279 36.2667 169.279 35.04V34.56C169.279 33.3333 169.733 32.2667 170.639 31.36C171.546 30.4533 172.613 30 173.839 30H175.919C177.146 30 178.213 30.4533 179.119 31.36C180.026 32.2667 180.479 33.3333 180.479 34.56V35.04C180.479 36.2667 180.026 37.3333 179.119 38.24C178.213 39.1467 177.146 39.6 175.919 39.6H173.839ZM211.751 90.8C205.137 90.8 200.044 88.9867 196.471 85.36C192.897 81.68 191.111 76.2933 191.111 69.2C191.111 62.2133 192.817 56.88 196.231 53.2C199.697 49.4667 204.604 47.6 210.951 47.6C213.777 47.6 216.497 47.7867 219.111 48.16C220.337 48.32 221.351 48.88 222.151 49.84C222.951 50.8 223.351 51.92 223.351 53.2C223.351 54.2667 222.924 55.12 222.071 55.76C221.271 56.4 220.337 56.6133 219.271 56.4C217.191 55.9733 214.871 55.76 212.311 55.76C208.951 55.76 206.444 56.8267 204.791 58.96C203.137 61.0933 202.311 64.5067 202.311 69.2C202.311 74 203.191 77.44 204.951 79.52C206.711 81.6 209.431 82.64 213.111 82.64C215.724 82.64 217.991 82.4 219.911 81.92C220.924 81.6533 221.831 81.84 222.631 82.48C223.484 83.12 223.911 83.9467 223.911 84.96C223.911 86.24 223.511 87.36 222.711 88.32C221.964 89.28 220.977 89.8667 219.751 90.08C217.031 90.56 214.364 90.8 211.751 90.8ZM241.496 90C240.269 90 239.202 89.5467 238.296 88.64C237.389 87.7333 236.936 86.6667 236.936 85.44V52.96C236.936 51.7333 237.389 50.6667 238.296 49.76C239.202 48.8533 240.269 48.4 241.496 48.4H243.576C244.802 48.4 245.869 48.8533 246.776 49.76C247.682 50.6667 248.136 51.7333 248.136 52.96V85.44C248.136 86.6667 247.682 87.7333 246.776 88.64C245.869 89.5467 244.802 90 243.576 90H241.496ZM241.496 39.6C240.269 39.6 239.202 39.1467 238.296 38.24C237.389 37.3333 236.936 36.2667 236.936 35.04V34.56C236.936 33.3333 237.389 32.2667 238.296 31.36C239.202 30.4533 240.269 30 241.496 30H243.576C244.802 30 245.869 30.4533 246.776 31.36C247.682 32.2667 248.136 33.3333 248.136 34.56V35.04C248.136 36.2667 247.682 37.3333 246.776 38.24C245.869 39.1467 244.802 39.6 243.576 39.6H241.496ZM281.167 70C273.54 70 269.727 72.3467 269.727 77.04C269.727 78.7467 270.207 80.1333 271.167 81.2C272.18 82.2667 273.46 82.8 275.007 82.8C278.047 82.8 280.5 81.8667 282.367 80C284.234 78.08 285.167 75.4667 285.167 72.16V70.72C285.167 70.24 284.927 70 284.447 70H281.167ZM272.127 90.8C268.5 90.8 265.487 89.6267 263.087 87.28C260.74 84.88 259.567 81.7867 259.567 78C259.567 73.36 261.327 69.76 264.847 67.2C268.42 64.64 273.86 63.36 281.167 63.36H284.447C284.927 63.36 285.167 63.12 285.167 62.64V62C285.167 59.5467 284.58 57.84 283.407 56.88C282.234 55.8667 280.154 55.36 277.167 55.36C274.074 55.36 270.287 55.92 265.807 57.04C264.847 57.3067 263.967 57.1467 263.167 56.56C262.367 55.92 261.967 55.0933 261.967 54.08C261.967 52.8533 262.34 51.76 263.087 50.8C263.834 49.7867 264.794 49.1733 265.967 48.96C270.02 48.0533 273.834 47.6 277.407 47.6C284.234 47.6 289.007 48.8267 291.727 51.28C294.447 53.7333 295.807 58.0267 295.807 64.16V85.44C295.807 86.6667 295.354 87.7333 294.447 88.64C293.594 89.5467 292.554 90 291.327 90H290.447C289.167 90 288.074 89.5733 287.167 88.72C286.26 87.8133 285.78 86.72 285.727 85.44V84.32C285.727 84.2667 285.7 84.24 285.647 84.24C285.54 84.24 285.487 84.2667 285.487 84.32C282.234 88.64 277.78 90.8 272.127 90.8ZM319.949 73.2C314.349 71.9733 310.349 70.2933 307.949 68.16C305.603 66.0267 304.429 63.2533 304.429 59.84C304.429 56 305.843 53.0133 308.669 50.88C311.549 48.6933 315.789 47.6 321.389 47.6C324.909 47.6 328.403 47.92 331.869 48.56C333.043 48.7733 333.976 49.36 334.669 50.32C335.416 51.2267 335.789 52.2933 335.789 53.52C335.789 54.5333 335.389 55.36 334.589 56C333.789 56.5867 332.883 56.7467 331.869 56.48C328.883 55.7333 325.736 55.36 322.429 55.36C317.629 55.36 315.229 56.6933 315.229 59.36C315.229 60.64 315.683 61.7067 316.589 62.56C317.496 63.4133 319.043 64.08 321.229 64.56C327.363 65.7867 331.549 67.44 333.789 69.52C336.083 71.6 337.229 74.64 337.229 78.64C337.229 82.48 335.789 85.4667 332.909 87.6C330.029 89.7333 325.843 90.8 320.349 90.8C316.776 90.8 313.123 90.3733 309.389 89.52C308.216 89.2533 307.256 88.64 306.509 87.68C305.763 86.6667 305.389 85.52 305.389 84.24C305.389 83.2267 305.789 82.4533 306.589 81.92C307.443 81.3867 308.349 81.2533 309.309 81.52C312.776 82.48 316.056 82.96 319.149 82.96C324.003 82.96 326.429 81.52 326.429 78.64C326.429 77.2533 325.949 76.16 324.989 75.36C324.083 74.56 322.403 73.84 319.949 73.2Z" fill="white"/>
<path d="M32.0635 280C28.4485 280 25.305 278.664 22.633 275.992C19.9611 273.32 18.6251 270.177 18.6251 266.562V121.333C18.6251 117.718 19.9611 114.575 22.633 111.903C25.305 109.231 28.4485 107.895 32.0635 107.895H37.9575C42.044 107.895 45.8162 108.995 49.274 111.195C52.7318 113.396 55.2466 116.303 56.8183 119.918L98.0765 209.036C98.0765 209.193 98.1551 209.272 98.3122 209.272C98.4694 209.272 98.548 209.193 98.548 209.036L139.806 119.918C141.378 116.303 143.893 113.396 147.35 111.195C150.808 108.995 154.58 107.895 158.667 107.895H165.504C169.119 107.895 172.263 109.231 174.935 111.903C177.606 114.575 178.942 117.718 178.942 121.333V266.562C178.942 270.177 177.606 273.32 174.935 275.992C172.263 278.664 169.119 280 165.504 280H160.317C156.702 280 153.559 278.664 150.887 275.992C148.215 273.32 146.879 270.177 146.879 266.562V164.006C146.879 163.849 146.8 163.77 146.643 163.77C146.486 163.77 146.407 163.849 146.407 164.006L118.116 224.596C116.387 228.211 113.715 231.198 110.1 233.555C106.642 235.756 102.949 236.856 99.0195 236.856H97.605C93.6756 236.856 89.9034 235.756 86.2884 233.555C82.8306 231.198 80.2373 228.211 78.5083 224.596L50.217 164.006C50.217 163.849 50.1385 163.77 49.9813 163.77C49.8241 163.77 49.7455 163.849 49.7455 164.006V266.562C49.7455 270.177 48.4095 273.32 45.7376 275.992C43.0656 278.664 39.9222 280 36.3072 280H32.0635ZM219.232 280C216.245 280 213.966 278.743 212.395 276.228C210.823 273.556 210.744 270.884 212.159 268.212L251.531 194.655C252.16 193.712 252.16 192.533 251.531 191.118L213.338 119.683C211.923 117.011 212.002 114.417 213.573 111.903C215.145 109.231 217.424 107.895 220.411 107.895H230.548C234.635 107.895 238.407 108.995 241.865 111.195C245.323 113.396 247.916 116.303 249.645 119.918L274.4 172.022C274.4 172.179 274.478 172.257 274.636 172.257C274.793 172.257 274.871 172.179 274.871 172.022L299.626 119.918C301.355 116.303 303.948 113.396 307.406 111.195C310.864 108.995 314.636 107.895 318.723 107.895H327.917C331.061 107.895 333.34 109.231 334.755 111.903C336.326 114.417 336.405 117.011 334.99 119.683L296.797 191.118C296.326 192.218 296.326 193.397 296.797 194.655L336.169 268.212C337.584 270.884 337.505 273.556 335.933 276.228C334.519 278.743 332.24 280 329.096 280H318.251C314.165 280 310.314 278.9 306.699 276.699C303.241 274.499 300.726 271.591 299.155 267.976L273.928 213.515C273.928 213.358 273.85 213.28 273.692 213.28C273.535 213.28 273.457 213.358 273.457 213.515L248.23 267.976C246.659 271.591 244.065 274.499 240.45 276.699C236.992 278.9 233.22 280 229.134 280H219.232Z" fill="white"/>
</svg>
